<svg width="424" height="360" viewBox="0 0 424 360" fill="none" xmlns="http://www.w3.org/2000/svg">
<path d="M405.956 138.59C400.085 162.987 393.136 166.912 380.741 169.707C370.644 171.995 356.945 173.491 337.233 184.702C334.142 186.424 330.993 188.401 327.618 190.631C325.605 191.987 323.534 193.427 321.379 194.98C320.868 195.347 320.443 195.629 320.017 195.968C317.862 197.55 315.706 199.244 313.437 201.108C306.205 206.896 298.376 213.871 289.924 222.286C286.209 225.985 282.323 229.571 278.324 232.762C277.814 233.327 277.246 233.75 276.736 234.117C267.433 241.883 257.393 248.66 246.842 254.589C213.005 273.65 174.262 283.194 138.213 282.827C136.852 282.827 135.575 282.742 134.214 282.686C133.42 282.686 132.569 282.686 131.775 282.601C114.786 281.895 98.5338 278.958 83.7569 273.678C83.1897 273.452 82.6224 273.254 82.0268 273.028C77.7157 271.391 73.4897 269.612 69.4906 267.522C63.3359 264.444 57.5216 260.886 52.2178 256.764C47.3394 253.121 42.9148 249.14 38.8874 244.622C-14.0372 185.944 28.5918 3.81208 171.908 49.8957C270.156 81.437 375.693 -65.3133 362.731 36.5676C353.57 108.912 420.477 77.6532 405.927 138.59H405.956Z" fill="#F1EFF8"/>
<path d="M68.2724 264.703C-18.6479 264.703 -29.889 326.621 77.3561 314.542C166.945 304.47 169.613 325.654 130.553 335.689C69.9472 351.298 172.14 381.699 266.639 335.392C330.907 303.913 476.417 285.888 309.503 258.869C111.676 226.832 68.2724 264.703 68.2724 264.703Z" fill="#F1EFF8"/>
<path d="M378.245 192.439C377.196 195.545 374.473 198.34 369.964 200.091C360.576 203.705 376.799 210.934 370.559 221.184C364.348 231.35 358.817 232.508 359.186 239.511C359.583 246.513 369.51 252.472 353.286 285.735C353.485 289.435 342.821 290.056 342.594 286.3C328.781 266.816 321.123 251.229 330.653 244.763C336.354 240.894 337.375 236.461 336.723 231.068C336.382 227.481 335.248 223.472 334.312 218.954C331.958 207.574 343.473 206.049 350.564 201.983C357.683 197.945 347.245 183.6 356.718 180.861C366.191 178.038 371.637 175.524 376.288 182.019C378.671 185.351 379.408 189.107 378.245 192.439Z" fill="#FCDEEB"/>
<path d="M348.181 290.084C347.529 290.112 346.962 289.689 346.82 289.039C346.281 286.413 333.773 224.488 363.298 191.309C363.781 190.773 364.603 190.716 365.142 191.196C365.681 191.676 365.738 192.495 365.255 193.032C336.609 225.222 349.259 287.881 349.372 288.503C349.514 289.209 349.06 289.914 348.351 290.056C348.295 290.056 348.21 290.056 348.153 290.056L348.181 290.084Z" fill="white"/>
<path style="mix-blend-mode:overlay" opacity="0.7" d="M378.245 192.439C377.196 195.545 374.473 198.34 369.964 200.091C360.576 203.705 376.799 210.934 370.559 221.184C364.348 231.35 358.817 232.508 359.186 239.511C359.583 246.513 369.51 252.472 353.286 285.735C353.485 289.434 342.821 290.056 342.594 286.3C328.781 266.816 321.123 251.229 330.653 244.763C336.354 240.894 337.375 236.461 336.723 231.068C338.424 230.616 340.126 230.164 341.828 229.684C346.508 228.385 351.443 226.437 354.052 222.286C356.576 218.106 356.094 212.854 357.257 208.11C358.789 201.842 363.44 196.42 369.368 193.935C372.318 192.664 375.296 192.354 378.274 192.467L378.245 192.439Z" fill="url(#paint0_linear_126_185)"/>
<path d="M371.467 224.347C372.176 224.516 373.055 225.109 373.31 226.973C373.622 229.289 373.651 231.661 373.31 233.976C373.225 234.654 373.112 235.331 372.998 236.037C372.715 237.619 372.459 239.115 372.545 240.612C372.686 243.351 374.048 246.344 376.005 248.49C377.508 248.095 379.04 247.699 380.458 247.135C385.591 245.13 390.3 240.894 394.1 234.851C395.433 232.734 396.596 230.475 397.702 228.216C396.681 227.086 395.603 225.844 395.064 224.234C394.327 222.032 394.809 219.773 395.263 217.598C395.376 217.09 395.49 216.582 395.575 216.073C395.972 213.927 396.029 211.753 395.773 209.579C395.66 208.732 395.32 207.687 394.724 207.63C394.27 207.574 393.93 207.15 393.987 206.67C394.043 206.19 394.469 205.88 394.951 205.936C396.312 206.106 397.248 207.348 397.504 209.381C397.787 211.725 397.731 214.069 397.305 216.384C397.22 216.892 397.107 217.429 396.993 217.965C396.568 219.998 396.142 221.947 396.738 223.698C397.078 224.742 397.787 225.674 398.525 226.521C399.29 224.855 400.028 223.161 400.737 221.523C401.276 220.253 401.843 218.982 402.41 217.711C403.29 215.763 404.169 213.899 405.587 212.403C408.593 209.183 413.075 208.308 417.783 207.63C418.265 207.574 418.69 207.885 418.747 208.365C418.804 208.845 418.492 209.268 418.01 209.325C413.614 209.974 409.444 210.793 406.807 213.589C405.587 214.916 404.793 216.553 403.942 218.445C403.375 219.716 402.836 220.987 402.269 222.257C401.021 225.166 399.716 228.103 398.269 230.983C400.226 231.661 401.758 231.689 403.318 230.983C404.538 230.446 405.644 229.656 406.807 228.809L407.601 228.244C409.019 227.255 410.721 226.182 412.678 225.844C414.351 225.561 416.109 225.815 418.123 226.578C418.662 226.804 419.229 227.143 419.825 227.481C420.619 227.99 421.555 228.526 422.207 228.554C422.69 228.554 423.058 228.95 423.03 229.43C423.03 229.91 422.633 230.277 422.151 230.249C421.045 230.22 419.967 229.571 418.946 228.922C418.407 228.611 417.925 228.3 417.499 228.131C415.797 227.453 414.323 227.255 412.99 227.481C411.401 227.764 409.955 228.667 408.622 229.599L407.828 230.164C406.636 231.011 405.417 231.886 404.027 232.508C401.559 233.581 399.376 233.157 397.504 232.508C396.908 233.637 396.256 234.738 395.575 235.811C391.576 242.165 386.556 246.655 381.082 248.772C379.437 249.422 377.707 249.874 376.033 250.297C375.948 250.326 375.863 250.382 375.75 250.382C373.169 251.06 370.758 251.709 368.602 253.008C367.893 253.432 367.241 253.968 366.617 254.505C368.092 255.041 369.368 255.917 370.616 256.764L371.41 257.3C374.842 259.587 380.174 262.27 386.045 261.931C386.839 261.875 387.633 261.79 388.428 261.705C390.47 261.451 392.569 261.197 394.639 261.79C395.093 261.931 395.348 262.383 395.235 262.835C395.093 263.287 394.639 263.541 394.185 263.428C392.455 262.948 390.612 263.145 388.655 263.4C387.832 263.484 387.009 263.597 386.187 263.654C381.507 263.908 377.196 262.439 373.764 260.66C372.545 260.039 371.467 259.362 370.502 258.712L369.708 258.176C368.262 257.187 366.9 256.255 365.369 255.86C365.34 255.86 365.312 255.832 365.255 255.804C364.575 256.481 363.922 257.187 363.27 257.893L356.747 265.009C355.272 266.619 353.74 268.285 352.577 270.148C349.713 274.666 349.004 280.398 350.677 285.481C350.819 285.933 350.592 286.413 350.138 286.554C349.911 286.639 349.684 286.611 349.486 286.498C349.287 286.385 349.145 286.215 349.06 286.018C347.217 280.455 348.011 274.186 351.131 269.245C352.379 267.268 353.967 265.546 355.499 263.88L362.022 256.764C363.752 254.9 365.511 252.952 367.78 251.568C369.765 250.326 371.977 249.648 374.19 249.055C372.289 246.683 371.041 243.633 370.871 240.781C370.786 239.087 371.07 237.421 371.325 235.811C371.438 235.162 371.552 234.484 371.637 233.835C371.921 231.661 371.921 229.458 371.637 227.284C371.524 226.465 371.297 226.126 371.098 226.07C370.644 225.957 370.361 225.505 370.446 225.053C370.559 224.601 371.013 224.319 371.467 224.404V224.347Z" fill="#FEFEFE"/>
<path d="M337.233 90.5577V280.173C337.233 283.872 335.787 287.317 333.433 289.886C331.844 291.665 329.774 293.021 327.476 293.727V293.811C326.966 293.953 326.484 294.094 325.888 294.235C324.952 294.376 323.96 294.517 322.938 294.517H66.6543C58.7695 294.517 52.2461 288.023 52.2461 280.173V90.5577C52.2461 82.5665 58.7695 76.213 66.6543 76.213H322.967C330.852 76.213 337.233 82.5665 337.233 90.5577Z" fill="#F8F7F2"/>
<path d="M318.968 109.957H73.3479C71.1706 109.957 69.4055 111.714 69.4055 113.882V185.379C69.4055 187.547 71.1706 189.304 73.3479 189.304H318.968C321.145 189.304 322.91 187.547 322.91 185.379V113.882C322.91 111.714 321.145 109.957 318.968 109.957Z" fill="#FCDEEB"/>
<path d="M322.882 177.953V178.659C322.882 180.522 321.379 182.019 319.507 182.019H72.7239C70.9371 182.019 69.4339 180.522 69.4339 178.659V177.953C69.4339 176.089 70.9371 174.593 72.7239 174.593H319.507C321.379 174.593 322.882 176.089 322.882 177.953Z" fill="white"/>
<path d="M222.79 177.953V178.659C222.79 180.522 221.287 182.019 219.5 182.019H72.7239C70.9371 182.019 69.4339 180.522 69.4339 178.659V177.953C69.4339 176.089 70.9371 174.593 72.7239 174.593H219.472C221.259 174.593 222.762 176.089 222.762 177.953H222.79Z" fill="#131F77"/>
<path d="M143.375 197.888H71.7596C70.5378 197.888 69.5473 198.875 69.5473 200.091V204.553C69.5473 205.769 70.5378 206.755 71.7596 206.755H143.375C144.597 206.755 145.587 205.769 145.587 204.553V200.091C145.587 198.875 144.597 197.888 143.375 197.888Z" fill="#F851A7"/>
<path d="M230.363 197.888H162.208C160.03 197.888 158.265 199.646 158.265 201.813V215.113C158.265 217.281 160.03 219.038 162.208 219.038H230.363C232.54 219.038 234.305 217.281 234.305 215.113V201.813C234.305 199.646 232.54 197.888 230.363 197.888Z" fill="#F851A7"/>
<path d="M204.695 229.938H162.208C160.03 229.938 158.265 231.695 158.265 233.863V235.021C158.265 237.189 160.03 238.946 162.208 238.946H204.695C206.872 238.946 208.637 237.189 208.637 235.021V233.863C208.637 231.695 206.872 229.938 204.695 229.938Z" fill="#F851A7"/>
<path d="M230.363 244.65H162.208C160.03 244.65 158.265 246.407 158.265 248.575V249.733C158.265 251.9 160.03 253.658 162.208 253.658H230.363C232.54 253.658 234.305 251.9 234.305 249.733V248.575C234.305 246.407 232.54 244.65 230.363 244.65Z" fill="#F851A7"/>
<path d="M322.825 195.94H250.557C248.505 195.94 246.842 197.596 246.842 199.639V289.689C246.842 291.732 248.505 293.388 250.557 293.388H322.825C324.877 293.388 326.54 291.732 326.54 289.689V199.639C326.54 197.596 324.877 195.94 322.825 195.94Z" fill="#FCDEEB"/>
<path d="M327.25 294.122C327.051 294.348 326.767 294.461 326.569 294.461C326.285 294.461 326.002 294.348 325.803 294.122L286.294 245.864L246.785 294.122C246.586 294.348 246.303 294.461 246.019 294.461C245.821 294.461 245.537 294.348 245.338 294.122C244.941 293.783 244.941 292.992 245.338 292.541L284.933 244.17L246.104 196.703C245.707 196.251 245.821 195.46 246.189 195.121C246.586 194.669 247.154 194.669 247.551 195.121L286.266 242.476L324.981 195.121C325.378 194.669 325.945 194.669 326.342 195.121C326.739 195.46 326.824 196.251 326.427 196.703L287.599 244.17L327.193 292.541C327.59 292.992 327.59 293.783 327.193 294.122H327.25Z" fill="white"/>
<path d="M134.526 215.989H73.2344C71.1824 215.989 69.5189 217.645 69.5189 219.688V284.465C69.5189 286.508 71.1824 288.164 73.2344 288.164H134.526C136.578 288.164 138.241 286.508 138.241 284.465V219.688C138.241 217.645 136.578 215.989 134.526 215.989Z" fill="#FCDEEB"/>
<path d="M138.865 288.729C138.695 288.898 138.44 288.983 138.27 288.983C138.015 288.983 137.759 288.898 137.589 288.729L103.526 252.98L69.4622 288.729C69.292 288.898 69.0368 288.983 68.7815 288.983C68.6113 288.983 68.3561 288.898 68.1859 288.729C67.8455 288.474 67.8455 287.91 68.1859 287.571L102.334 251.737L68.8382 216.582C68.4979 216.243 68.583 215.678 68.9233 215.424C69.2637 215.085 69.7458 215.085 70.0862 215.424L103.497 250.495L136.908 215.424C137.249 215.085 137.731 215.085 138.071 215.424C138.412 215.678 138.497 216.243 138.156 216.582L104.66 251.737L138.809 287.571C139.149 287.91 139.149 288.474 138.809 288.729H138.865Z" fill="white"/>
<path d="M79.1906 92.1955C79.1906 94.8781 77.0066 97.0806 74.2838 97.0806C71.561 97.0806 69.3771 94.9063 69.3771 92.1955C69.3771 89.4847 71.561 87.3104 74.2838 87.3104C77.0066 87.3104 79.1906 89.4847 79.1906 92.1955Z" fill="#F851A7"/>
<path d="M96.0663 92.1955C96.0663 94.8781 93.8824 97.0806 91.1596 97.0806C88.4368 97.0806 86.2528 94.9063 86.2528 92.1955C86.2528 89.4847 88.4368 87.3104 91.1596 87.3104C93.8824 87.3104 96.0663 89.4847 96.0663 92.1955Z" fill="#F851A7"/>
<path d="M112.914 92.1955C112.914 94.8781 110.73 97.0806 108.007 97.0806C105.284 97.0806 103.1 94.9063 103.1 92.1955C103.1 89.4847 105.284 87.3104 108.007 87.3104C110.73 87.3104 112.914 89.4847 112.914 92.1955Z" fill="#F851A7"/>
<path d="M179.424 161.688V130.231C179.424 126.673 183.196 124.358 186.373 125.939L217.969 141.668C221.514 143.418 221.514 148.473 217.969 150.224L186.373 165.952C183.168 167.533 179.424 165.218 179.424 161.66V161.688Z" fill="white"/>
<path style="mix-blend-mode:overlay" opacity="0.7" d="M337.233 90.5577V154.685C332.724 154.12 328.271 153.188 323.988 151.833C317.464 149.828 311.31 146.976 304.985 144.633C287.996 138.364 269.305 135.794 251.748 140.143C234.277 144.435 218.139 156.408 211.474 173.096C207.957 181.793 207.106 191.281 203.731 200.063C198.001 215.198 184.955 226.888 170.064 233.298C155.146 239.708 138.468 241.148 122.273 239.793C105.936 238.353 87.3023 232.028 82.1403 216.469C78.1411 204.496 83.9271 191.366 91.6134 181.228C99.2145 171.091 108.801 162.253 114.247 150.845C122.188 134.015 119.551 113.091 109.17 97.5606C102.731 87.8469 94.2511 81.437 84.6645 76.2413H322.995C330.88 76.2413 337.262 82.5947 337.262 90.5859L337.233 90.5577Z" fill="url(#paint1_linear_126_185)"/>
<path style="mix-blend-mode:overlay" opacity="0.7" d="M337.233 212.346V280.201C337.233 283.9 335.787 287.345 333.433 289.914C331.844 291.693 329.774 293.049 327.476 293.755V293.84C326.966 293.981 326.484 294.122 325.888 294.263C324.952 294.404 323.96 294.545 322.938 294.545H148.877C149.104 289.914 149.87 285.199 150.749 280.624C151.317 277.208 151.969 273.763 153.33 270.628C156.195 263.71 162.208 258.345 168.873 254.928C178.488 250.071 189.805 248.659 200.327 251.003C211.077 253.432 220.465 259.559 230.42 264.19C240.318 268.906 251.777 272.181 262.157 268.623C269.759 266.054 276.339 257.554 272.822 250.438C269.957 244.509 262.214 243.153 257.137 239.031C248.175 231.745 249.394 216.695 257.421 208.506C266.809 198.877 281.784 197.521 295.115 198.792C308.02 200.063 324.64 204.214 337.176 212.346H337.233Z" fill="url(#paint2_linear_126_185)"/>
<path opacity="0.1" d="M374.502 154.262C373.707 153.894 372.857 153.556 372.062 153.33L338.595 144.633C338.169 144.491 337.744 144.407 337.233 144.407C330.993 143.475 324.839 147.343 323.25 153.612L323.109 154.036L322.882 153.81L309.041 139.747C307.452 138.11 304.73 138.816 304.248 141.018C302.177 140.453 298.66 149.715 296.363 159.005C294.86 165.133 293.782 171.345 294.009 174.564C294.094 175.835 294.434 176.626 294.945 176.767C294.292 178.969 296.391 180.918 298.518 180.184L310.119 176.823C310.26 178.546 310.402 180.24 310.544 181.963C310.686 184.447 310.969 186.876 311.253 189.248C311.537 191.535 311.82 193.822 312.246 195.884C312.614 197.663 312.955 199.385 313.38 201.023C313.948 203.225 314.6 205.23 315.309 206.953C315.593 207.743 315.961 208.393 316.302 209.014C316.67 209.72 317.011 210.369 317.436 210.934C318.514 212.29 322.314 213.278 326.455 213.871C330.114 214.436 334.113 214.662 337.12 214.577V184.617C356.832 173.407 370.502 171.91 380.628 169.623L380.912 168.55C382.5 162.761 379.635 156.775 374.388 154.205L374.502 154.262ZM335.078 192.439C335.588 195.432 336.212 198.143 337.006 200.571L326.541 202.35L324.045 202.774L323.336 200.571L322.541 198.227L321.747 195.94L321.379 194.952L319.507 189.304L317.067 182.019L314.855 175.468L317.805 174.621L317.663 175.044C317.011 177.388 317.153 179.816 317.89 182.047C318.599 184.391 320.102 186.481 322.116 188.034C323.392 189.107 324.924 189.897 326.626 190.321L327.618 190.603L335.078 192.467V192.439ZM333.433 289.886C335.787 287.317 337.233 283.9 337.233 280.173V259.616C334.51 270.741 333.574 281.076 333.376 287.712C333.376 288.277 333.376 288.983 333.461 289.858L333.433 289.886Z" fill="black"/>
<path opacity="0.1" d="M194.74 100.384L161.215 81.9735C157.216 79.7427 152.394 80.6463 149.927 83.8936C149.643 84.2043 149.416 84.5149 149.218 84.882L144.765 92.9861C143.942 92.9861 143.205 93.4097 143.035 94.1721L136.908 94.7933C136.908 94.7933 136.993 94.6804 137.05 94.5957C136.937 94.3415 136.767 94.0874 136.596 93.8332C135.122 91.3201 132.938 88.6658 130.47 86.1526C130.754 85.3055 131.151 84.5431 131.576 83.8372C132.541 84.5149 133.505 84.9667 134.327 84.9667C137.844 84.0913 143.177 80.8722 145.814 74.4058C145.956 74.3494 146.155 74.4058 146.268 74.2929C149.161 73.3046 150.806 70.6785 151.005 68.5607C147.176 67.7983 144.311 66.1605 141.815 62.9132C139.404 60.3153 133.987 61.3601 131.151 61.4166C126.187 61.8401 121.961 66.9511 124.315 74.2082C124.911 75.9871 123.096 76.5519 125.024 78.6979C124.684 79.3192 124.23 79.7992 123.578 80.0533C119.919 77.3143 116.26 75.2812 113.566 74.7165C101.852 72.3727 87.671 100.78 77.2335 120.122C77.347 120.885 77.9142 121.45 78.6517 121.958C78.1128 135.173 80.4669 143.757 81.9701 150.337L52.3029 302.621C52.1327 303.581 52.8134 304.542 53.8912 304.767C54.0613 304.796 54.2031 304.824 54.3733 304.824C55.2242 304.824 55.99 304.287 56.1318 303.497L62.2298 272.181H108.376L102.448 302.65C102.278 303.61 102.958 304.57 104.036 304.796C104.206 304.824 104.348 304.852 104.518 304.852C105.369 304.852 106.135 304.316 106.277 303.525L122.443 220.591C122.642 220.591 122.869 220.591 123.096 220.591C123.096 220.253 122.897 219.914 122.642 219.547L141.673 121.901C142.184 121.901 142.609 121.986 143.12 121.986H143.148C149.048 121.986 156.081 120.998 163.342 119.671L179.367 128.481C183.763 130.881 189.124 129.582 191.365 125.572L194.683 119.529L198.767 112.075C200.951 108.037 199.164 102.813 194.768 100.384H194.74ZM138.979 112.752L138.922 112.188H139.518L139.404 112.752H138.979ZM138.468 108.658L137.844 103.462C138.894 103.236 139.943 102.982 141.049 102.7C141.049 103.039 141.106 103.378 141.191 103.716L140.227 108.686H138.497L138.468 108.658ZM104.206 209.974C104.036 210.482 103.781 211.075 103.355 211.725C102.703 212.77 102.533 213.871 102.561 214.718C102.363 214.662 102.164 214.662 101.966 214.577C101.852 214.803 101.767 215.057 101.682 215.283H88.8338C86.7066 213.334 83.6719 211.386 81.5447 210.369C81.4028 210.426 81.261 210.426 81.1192 210.454C80.7221 208.647 81.261 207.517 81.261 207.517C81.9701 207.602 82.6224 207.63 83.0762 207.546C84.9482 202.491 86.8485 197.267 88.6353 192.128H102.817C102.873 201.362 102.845 209.127 102.845 209.127C103.1 209.409 103.639 209.692 104.263 209.918L104.206 209.974ZM89.7982 188.627C92.8046 179.788 95.4139 171.515 97.0306 165.5H102.334C102.59 170.668 102.703 179.929 102.76 188.627H89.7982ZM97.9099 161.97C98.2502 160.417 98.5338 159.034 98.6473 158.045C98.7891 156.69 98.9026 155.08 98.9876 153.386C100.434 156.549 101.54 159.288 101.966 161.942H97.9099V161.97ZM109.056 268.623H62.9105L67.4201 245.497H113.566L109.056 268.623ZM114.247 241.967H68.1008L72.6105 218.841H89.4862C90.1102 218.954 90.7625 219.095 91.3865 219.18C91.3865 219.067 91.3297 218.954 91.3297 218.841H101.285C101.398 219.405 101.597 219.97 101.909 220.507C107.581 220.591 113.055 220.676 118.416 220.591L114.247 241.939V241.967ZM119.437 215.311H116.09C114.502 214.633 112.942 214.069 111.694 213.73C111.552 213.814 111.439 213.843 111.297 213.899C110.531 212.177 110.815 210.962 110.815 210.962C111.524 210.906 112.148 210.821 112.573 210.652C113.396 204.581 114.162 198.284 114.842 192.184H123.975L119.465 215.311H119.437ZM124.627 188.655H115.183C116.119 179.704 116.799 171.458 116.998 165.528H129.137L124.627 188.655ZM129.818 161.999H117.055C117.055 160.53 116.998 159.288 116.913 158.356C116.374 153.556 115.126 146.609 112.942 138.872H134.327L129.818 161.999ZM135.008 135.342H111.864C111.439 134.015 111.013 132.688 110.531 131.361C116.147 126.786 119.522 120.546 124.854 112.216H128.541C130.3 116.593 132.143 120.179 133.533 120.772C134.753 121.167 136.143 121.45 137.646 121.647L134.98 135.342H135.008ZM143.347 112.978L144.169 108.714C144.708 109.166 145.162 109.674 145.786 110.042L151.855 113.402L143.318 112.978H143.347Z" fill="black"/>
<path d="M356.633 185.153L339.757 188.034L330.54 160.643L325.775 161.632C326.739 175.92 328.554 189.784 333.206 196.222C335.588 199.046 349.968 200.43 355.414 199.696L356.633 185.125V185.153Z" fill="url(#paint3_linear_126_185)"/>
<path d="M325.775 161.631C325.775 161.631 322.598 158.808 322.853 156.323C323.137 153.697 328.526 152.483 330.001 153.527C331.476 154.544 329.121 157.255 329.916 157.565C330.71 157.876 331.164 156.492 331.844 157.029C332.525 157.565 330.511 160.643 330.511 160.643L325.746 161.631H325.775Z" fill="#FBD783"/>
<path d="M373.963 157.283L368.347 178.659C366.645 185.351 359.753 189.389 353.031 187.638L319.563 178.969C312.841 177.219 308.842 170.413 310.601 163.721L310.714 163.298L314.174 149.856H314.231L316.046 142.741L316.16 142.317C317.918 135.625 324.754 131.643 331.476 133.338L364.943 142.006C365.794 142.261 366.645 142.543 367.411 142.967C372.601 145.508 375.466 151.466 373.934 157.255L373.963 157.283Z" fill="#4862C1"/>
<path d="M316.046 142.741L314.231 149.856H314.174L310.714 163.298L291.399 168.973C289.272 169.623 287.23 167.703 287.826 165.528C285.897 165.048 287.088 156.379 289.272 147.767C291.569 138.477 295.086 129.215 297.129 129.751C297.667 127.577 300.39 126.871 301.979 128.481L316.018 142.769L316.046 142.741Z" fill="#131F77"/>
<path d="M360.519 155.984L351.556 153.669C350.28 153.33 349.514 152.031 349.855 150.788C350.195 149.518 351.5 148.755 352.748 149.094L361.71 151.41C362.986 151.748 363.752 153.047 363.412 154.29C363.071 155.56 361.767 156.323 360.519 155.984Z" fill="white"/>
<path style="mix-blend-mode:overlay" opacity="0.7" d="M373.963 157.283L368.347 178.659C366.645 185.351 359.753 189.389 353.031 187.638L319.563 178.969C312.841 177.219 308.842 170.413 310.601 163.721L310.714 163.298L291.399 168.973C289.272 169.623 287.23 167.703 287.826 165.528C285.897 165.048 287.088 156.379 289.272 147.767C291.031 147.513 292.732 147.4 294.462 147.287C299 147.033 303.538 147.033 308.02 148.021C310.147 148.445 312.132 149.094 314.146 149.885H314.203C319.705 152.003 324.924 155.08 330.483 157.114C338.765 160.248 348.323 161.151 356.321 157.283C357.286 156.803 358.25 156.266 359.101 155.645C360.547 154.685 361.824 153.527 362.986 152.2C365.114 149.8 366.617 146.892 367.354 143.757C367.411 143.503 367.468 143.277 367.411 142.967C372.601 145.508 375.466 151.466 373.934 157.255L373.963 157.283Z" fill="url(#paint4_linear_126_185)"/>
<path d="M369.879 329.673C369.879 329.673 370.786 331.169 370.814 333.09C370.843 335.038 379.465 333.429 379.465 333.429C379.465 333.429 378.756 331.395 377.508 328.939C376.26 326.51 375.211 325.437 375.211 325.437L369.879 329.673Z" fill="#FBD783"/>
<path d="M365.227 236.574C368.517 259.955 362.362 270.148 364.234 279.071C366.106 287.994 376.6 326.962 376.6 326.962C375.75 328.656 371.779 330.096 369.425 329.645C360.349 308.777 349.486 284.634 348.124 277.179C346.621 268.765 345.231 253.827 347.217 238.55L365.255 236.574H365.227Z" fill="white"/>
<path d="M379.238 331.395C380.713 333.061 381.252 334.756 380.826 336.535C374.672 337.89 368.687 339.358 362.873 340.29C362.419 338.088 367.695 333.937 370.786 332.355C373.707 333.316 376.544 333.005 379.238 331.395Z" fill="#362682"/>
<path d="M337.347 332.186C337.347 332.186 337.942 333.824 337.602 335.716C337.262 337.636 346.026 337.721 346.026 337.721C346.026 337.721 345.742 335.603 344.976 332.92C344.239 330.294 343.388 329.052 343.388 329.052L337.318 332.186H337.347Z" fill="#FBD783"/>
<path d="M351.102 239.962C349.713 263.512 341.686 272.323 341.743 281.443C341.828 290.564 344.437 330.802 344.437 330.802C343.274 332.299 339.077 332.948 336.864 332.045C332.071 309.822 326.172 284.013 326.314 276.417C326.512 267.861 328.1 252.952 333.036 238.353L351.102 239.934V239.962Z" fill="white"/>
<path d="M346.167 335.687C347.302 337.608 347.5 339.387 346.706 341.024C340.381 341.166 334.255 341.448 328.356 341.194C328.356 338.935 334.34 335.885 337.687 334.953C340.381 336.478 343.189 336.704 346.167 335.659V335.687Z" fill="#362682"/>
<path d="M366.815 241.12C362.306 245.723 338.056 247.361 331.249 243.492C328.781 231.096 331.334 210.172 332.752 188.881C341.346 184.673 357.371 183.996 363.44 187.215C370.559 192.693 365.028 217.316 366.815 241.12Z" fill="url(#paint5_linear_126_185)"/>
<path d="M353.683 186.481C352.237 184.024 351.953 181.257 351.812 178.15H345.118C345.231 181.2 345.146 184.306 344.21 187.441C344.891 188.74 353.003 188.231 353.683 186.509V186.481Z" fill="#FBD783"/>
<path d="M354.109 181.087C349.457 181.454 345.458 183.657 342.395 180.805C337.744 177.614 341.771 166.065 345.373 161.547L359.895 164.907L354.109 181.087Z" fill="#FBD783"/>
<path d="M355.47 181.398L348.89 183.713L345.714 175.891L350.62 173.491L349.769 170.696L346.933 172.418L346.167 170.498L348.635 166.743C344.891 165.895 336.95 160.954 336.95 160.954C336.95 160.954 343.643 155.758 345.317 154.064C348.38 156.803 353.996 158.158 353.996 158.158L361.994 166.234L355.414 181.398H355.47Z" fill="#2A195B"/>
<path d="M333.886 188.598L317.011 191.479L307.793 164.088L303.028 165.077C303.992 179.365 305.807 193.229 310.459 199.667C312.841 202.491 327.221 203.875 332.667 203.141L333.886 188.57V188.598Z" fill="url(#paint6_linear_126_185)"/>
<path d="M303 165.076C303 165.076 299.823 162.253 300.078 159.768C300.362 157.142 305.751 155.928 307.226 156.972C308.7 157.989 306.346 160.7 307.141 161.01C307.935 161.321 308.388 159.937 309.069 160.474C309.75 161.01 307.736 164.088 307.736 164.088L302.971 165.076H303Z" fill="#FBD783"/>
<path d="M113.708 94.991C110.219 94.0309 97.8248 80.7875 96.2648 75.5918L101.739 71.7233L105.341 69.1819L108.659 65.6805L118.359 85.8138L146.665 82.7924L147.715 87.4516C147.516 87.5363 147.317 87.621 147.147 87.6775C138.639 90.8965 130.158 93.6638 123.181 94.7651H123.153C119.522 95.3581 116.317 95.471 113.679 94.991H113.708Z" fill="url(#paint7_linear_126_185)"/>
<path d="M147.8 87.4233C147.8 87.4233 151.629 89.0893 153.727 87.8469C155.968 86.5197 154.834 81.2393 153.33 80.364C151.799 79.4886 150.352 82.6794 149.757 82.0864C149.161 81.4935 150.182 80.5334 149.445 80.1381C148.707 79.7427 146.75 82.7924 146.75 82.7924L147.8 87.4233Z" fill="#FBD783"/>
<path d="M135.632 82.9053C134.583 82.6512 133.533 83.2442 133.278 84.2325L129.279 99.3113H83.133L86.9052 85.1361C87.1604 84.1478 86.5365 83.1595 85.5154 82.9053C84.466 82.6512 83.4166 83.2442 83.1613 84.2325L25.557 301.379C25.3017 302.367 25.9257 303.384 26.9467 303.61C27.1169 303.638 27.2587 303.666 27.4289 303.666C28.2798 303.666 29.0739 303.101 29.3008 302.283L37.9514 269.64H84.0973L75.6736 301.379C75.4183 302.367 76.0423 303.384 77.0634 303.61C77.2335 303.638 77.3754 303.666 77.5455 303.666C78.3964 303.666 79.1906 303.101 79.4175 302.283L137.05 85.1361C137.305 84.1478 136.681 83.1595 135.66 82.9053H135.632ZM128.315 103.01L121.933 127.097H75.7871L82.1686 103.01H128.315ZM114.559 154.883H68.4128L74.7944 130.796H120.94L114.559 154.883ZM107.184 182.668H61.0385L67.4201 158.582H113.566L107.184 182.668ZM99.8101 210.454H53.6643L60.0458 186.368H106.192L99.8101 210.454ZM92.4359 238.24H46.29L52.6716 214.153H98.8175L92.4359 238.24ZM38.9157 266.026L45.2973 241.939H91.4432L85.0616 266.026H38.9441H38.9157Z" fill="#F851A7"/>
<path d="M91.5566 205.908C91.5566 205.908 91.1596 207.207 91.8119 209.014C92.4642 210.821 83.0762 211.442 83.0762 211.442C83.0762 211.442 82.5373 208.958 84.0689 206.727C85.6005 204.496 85.6005 202.915 85.6005 202.915L91.585 205.936L91.5566 205.908Z" fill="#FBD783"/>
<path d="M77.2903 115.435C78.8219 138.561 86.8201 147.146 86.8201 156.097C86.8201 165.048 83.7002 204.044 83.7002 204.044C84.8631 205.513 91.1596 206.501 93.3151 205.597C97.8531 183.713 102.136 158.554 101.937 151.099C101.682 142.684 100.009 128.057 95.0452 113.769L77.3186 115.463L77.2903 115.435Z" fill="white"/>
<path d="M82.4239 209.692C81.1476 211.894 80.9491 213.956 81.8283 215.848C89.1175 215.932 96.2081 216.215 102.987 215.876C102.987 213.278 96.0663 209.833 92.1806 208.76C89.0891 210.539 85.8558 210.821 82.3955 209.663L82.4239 209.692Z" fill="#131F77"/>
<path d="M62.2865 202.378C62.2865 202.378 61.6341 203.564 61.8894 205.456C62.1447 207.348 52.8417 206.049 52.8417 206.049C52.8417 206.049 52.8417 203.508 54.7704 201.644C56.699 199.78 57.0394 198.199 57.0394 198.199L62.2865 202.378Z" fill="#FBD783"/>
<path d="M66.8528 110.917C63.6195 133.874 69.6607 143.898 67.8455 152.652C66.002 161.406 54.9689 198.933 54.9689 198.933C55.7914 200.599 61.776 202.83 64.0733 202.406C73.0075 181.906 82.3388 158.13 83.7002 150.788C85.1751 142.515 86.5365 127.831 84.5795 112.837L66.8812 110.889L66.8528 110.917Z" fill="white"/>
<path d="M52.5581 204.214C50.8564 206.106 50.2324 208.082 50.7146 210.144C57.8336 211.725 64.6973 213.419 71.4192 214.492C71.9581 211.951 65.8602 207.15 62.3148 205.343C58.9397 206.444 55.678 206.077 52.5581 204.242V204.214Z" fill="#131F77"/>
<path d="M97.7964 122.946C95.3572 122.466 86.9619 122.748 83.53 120.207C76.2976 114.814 65.6616 115.52 65.3496 111.284C77.347 91.1224 93.8257 61.5578 105.369 63.9862C111.751 65.3698 122.812 75.3941 126.896 83.8936C127.038 84.1478 127.18 84.4019 127.293 84.6843C125.478 87.1409 123.691 89.5411 121.905 91.8566C121.025 93.0426 120.174 94.1438 119.295 95.2733C109.624 107.924 105.483 116.875 97.7964 122.946Z" fill="url(#paint8_linear_126_185)"/>
<path d="M114.615 69.7467C116.97 69.1537 117.111 66.0475 118.841 64.2121L125.365 70.029C123.691 71.8362 122.131 73.7846 121.196 76.2978C120.004 76.6648 114.218 71.2432 114.644 69.7467H114.615Z" fill="#FBD783"/>
<path d="M116.374 65.5393C118.671 69.2384 122.415 74.6317 125.365 74.6317C129.392 73.5869 136.058 69.436 138.809 60.8518L126.272 51.0252L116.374 65.5393Z" fill="#FBD783"/>
<path d="M116.204 63.4497C116.771 65.6804 113.821 66.0475 118.076 69.6902C120.6 71.8645 124.429 70.3679 125.762 67.77C125.081 65.8781 124.117 63.8168 124.854 62.7437C125.28 61.6707 126.357 61.5578 127.464 61.8401C127.804 62.6308 127.776 63.7603 127.719 64.918L129.591 64.4098L131.066 60.4847C133.788 62.8285 136.398 64.7768 138.156 63.5344C141.106 62.4896 142.978 59.7788 143.347 57.5763C139.574 56.7856 136.852 55.0631 134.611 51.6746C132.427 48.9638 126.925 50.0651 124.06 50.1216C119.04 50.5734 114.417 55.9103 116.175 63.4497H116.204Z" fill="#2A195B"/>
<path d="M141.021 73.5022C140.709 73.8128 140.454 74.1517 140.255 74.5188L131.746 88.5811C129.194 92.7884 130.555 98.2383 134.81 100.751L166.803 119.953C171.029 122.466 176.474 121.111 179.027 116.903L182.856 110.606L187.536 102.841C190.06 98.6336 188.67 93.1838 184.472 90.6706L152.451 71.4691C148.622 69.1536 143.715 70.0855 141.021 73.4457V73.5022Z" fill="#4862C1"/>
<path style="mix-blend-mode:overlay" opacity="0.7" d="M141.021 73.5022C140.709 73.8128 140.454 74.1517 140.255 74.5188L131.746 88.5811C129.194 92.7885 130.555 98.2383 134.81 100.751L166.803 119.953C171.029 122.466 176.474 121.111 179.027 116.903L182.856 110.606C181.239 110.38 179.594 110.296 177.977 110.042C170.178 108.856 163.342 102.728 161.272 95.1322C160.251 91.3766 160.308 87.3104 158.606 83.7807C156.961 80.3075 153.727 77.7943 150.239 76.1848C147.317 74.8294 144.226 73.8976 141.049 73.474L141.021 73.5022Z" fill="url(#paint9_linear_126_185)"/>
<path d="M166.106 89.53L149.398 78.238L146.674 82.2331L163.382 93.5251L166.106 89.53Z" fill="white"/>
<path d="M174.711 105.132L144.838 84.9424L142.114 88.9375L171.987 109.127L174.711 105.132Z" fill="white"/>
<path d="M121.649 111.934C118.331 110.465 113.935 90.5012 113.197 85.1361H117.452H126.925H126.981L127.691 103.603L156.138 105.044L156.45 109.816C147.317 111.736 138.27 113.176 131.037 113.232H131.009C127.322 113.232 124.117 112.837 121.621 111.962L121.649 111.934Z" fill="url(#paint10_linear_126_185)"/>
<path d="M158.01 109.477C158.01 109.477 159.655 111.171 162.094 111.284C164.704 111.397 167.455 107.67 166.661 106.117C165.867 104.535 162.945 106.06 163.002 105.834C163.087 105.354 165.129 104.338 164.278 104.253C163.853 104.196 156.195 106.032 156.223 105.354L156.45 109.449L158.01 109.505V109.477Z" fill="#FBD783"/>
<defs>
<linearGradient id="paint0_linear_126_185" x1="325.236" y1="253.053" x2="391.318" y2="230.069" gradientUnits="userSpaceOnUse">
<stop stop-color="white"/>
<stop offset="1"/>
</linearGradient>
<linearGradient id="paint1_linear_126_185" x1="109.709" y1="82.2559" x2="250.365" y2="182.606" gradientUnits="userSpaceOnUse">
<stop stop-color="white"/>
<stop offset="1"/>
</linearGradient>
<linearGradient id="paint2_linear_126_185" x1="194.853" y1="187.554" x2="322.51" y2="363.502" gradientUnits="userSpaceOnUse">
<stop stop-color="white"/>
<stop offset="1"/>
</linearGradient>
<linearGradient id="paint3_linear_126_185" x1="325.775" y1="180.268" x2="356.633" y2="180.268" gradientUnits="userSpaceOnUse">
<stop stop-color="#131F77"/>
<stop offset="0.21" stop-color="#4E4F94"/>
<stop offset="0.49" stop-color="#988CB9"/>
<stop offset="0.73" stop-color="#CEB8D4"/>
<stop offset="0.9" stop-color="#EFD3E4"/>
<stop offset="1" stop-color="#FCDEEB"/>
</linearGradient>
<linearGradient id="paint4_linear_126_185" x1="286.89" y1="165.528" x2="374.36" y2="165.528" gradientUnits="userSpaceOnUse">
<stop stop-color="white"/>
<stop offset="1"/>
</linearGradient>
<linearGradient id="paint5_linear_126_185" x1="348.209" y1="172.221" x2="349.193" y2="260.971" gradientUnits="userSpaceOnUse">
<stop stop-color="#131F77"/>
<stop offset="0.21" stop-color="#4E4F94"/>
<stop offset="0.49" stop-color="#988CB9"/>
<stop offset="0.73" stop-color="#CEB8D4"/>
<stop offset="0.9" stop-color="#EFD3E4"/>
<stop offset="1" stop-color="#FCDEEB"/>
</linearGradient>
<linearGradient id="paint6_linear_126_185" x1="318.4" y1="172.559" x2="319.356" y2="261.31" gradientUnits="userSpaceOnUse">
<stop stop-color="#131F77"/>
<stop offset="0.21" stop-color="#4E4F94"/>
<stop offset="0.49" stop-color="#988CB9"/>
<stop offset="0.73" stop-color="#CEB8D4"/>
<stop offset="0.9" stop-color="#EFD3E4"/>
<stop offset="1" stop-color="#FCDEEB"/>
</linearGradient>
<linearGradient id="paint7_linear_126_185" x1="96.2648" y1="80.4487" x2="147.771" y2="80.4487" gradientUnits="userSpaceOnUse">
<stop stop-color="#F851A7"/>
<stop offset="1" stop-color="#131F77"/>
</linearGradient>
<linearGradient id="paint8_linear_126_185" x1="96.3216" y1="56.5597" x2="96.3216" y2="138.364" gradientUnits="userSpaceOnUse">
<stop stop-color="#F851A7"/>
<stop offset="1" stop-color="#131F77"/>
</linearGradient>
<linearGradient id="paint9_linear_126_185" x1="167.664" y1="88.2059" x2="145.685" y2="109.105" gradientUnits="userSpaceOnUse">
<stop stop-color="white"/>
<stop offset="0.26" stop-color="#C1C1C1"/>
<stop offset="0.85" stop-color="#292929"/>
<stop offset="1"/>
</linearGradient>
<linearGradient id="paint10_linear_126_185" x1="134.838" y1="56.5598" x2="134.838" y2="138.364" gradientUnits="userSpaceOnUse">
<stop stop-color="#F851A7"/>
<stop offset="1" stop-color="#131F77"/>
</linearGradient>
</defs>
</svg>
